<?xml version="1.0" encoding="utf-8"?>
<!-- Generator: Adobe Illustrator 24.0.1, SVG Export Plug-In . SVG Version: 6.00 Build 0)  -->
<svg version="1.1" id="Layer_1" xmlns="http://www.w3.org/2000/svg" xmlns:xlink="http://www.w3.org/1999/xlink" x="0px" y="0px"
	 viewBox="0 0 60 56" style="enable-background:new 0 0 60 56;" xml:space="preserve">
<style type="text/css">
	.st0{fill:#FFFFFF;}
</style>
<g>
	<path d="M6.3,55c-2.6,0-4.8-2-4.8-4.5V10.5C1.5,8,3.7,6,6.3,6l15.6,0l4.2,4H5.8V51h43.1V31.7l4.3,4v14.8c0,2.5-2.1,4.5-4.8,4.5H6.3
		z M22.8,25.5l15.8-15L28.6,1h29.8v28.3l-10-9.5l-15.8,15L22.8,25.5z"/>
	<path class="st0" d="M58,1.5v26.6l-8.8-8.4l-0.7-0.7l-0.7,0.7L32.6,34.1l-9.1-8.6l15-14.3l0.8-0.7l-0.8-0.7l-8.7-8.3H58 M21.7,6.5
		l3.2,3H6.3h-1v1v39.9v1h1h42.1h1v-1V32.8l3.3,3.1v14.6c0,2.2-1.9,4-4.3,4H6.3c-2.4,0-4.3-1.8-4.3-4V10.5c0-2.2,1.9-4,4.3-4l0.2,0
		H21.7 M59,0.5H27.4l0,0l10.5,10l-15.8,15l10.5,10l15.8-15l10.5,10V0.5L59,0.5z M22.1,5.5H6.3l0,0c-2.9,0-5.3,2.2-5.3,5v39.9
		c0,2.8,2.3,5,5.3,5h42.1c2.9,0,5.3-2.2,5.3-5v-15l-5.3-5v20H6.3V10.5h21.1L22.1,5.5L22.1,5.5z"/>
</g>
</svg>
