<?xml version="1.0" encoding="utf-8"?>
<!-- Generator: Adobe Illustrator 24.0.1, SVG Export Plug-In . SVG Version: 6.00 Build 0)  -->
<svg version="1.1"
	 id="Layer_1" xmlns:cc="http://creativecommons.org/ns#" xmlns:dc="http://purl.org/dc/elements/1.1/" xmlns:inkscape="http://www.inkscape.org/namespaces/inkscape" xmlns:rdf="http://www.w3.org/1999/02/22-rdf-syntax-ns#" xmlns:sodipodi="http://sodipodi.sourceforge.net/DTD/sodipodi-0.dtd" xmlns:svg="http://www.w3.org/2000/svg"
	 xmlns="http://www.w3.org/2000/svg" xmlns:xlink="http://www.w3.org/1999/xlink" x="0px" y="0px" viewBox="0 0 82.3 83.5"
	 style="enable-background:new 0 0 82.3 83.5;" xml:space="preserve">
<g transform="translate(0,-952.36218)">
	<path d="M32.7,1026.7c-6.6,6.6-17.4,6.6-24,0c-6.6-6.6-6.6-17.4,0-24l14.1-14.1c6.6-6.6,17.4-6.6,24,0c0.8,0.8,0.8,2,0,2.8
		c-0.8,0.8-2,0.8-2.8,0c0,0,0,0,0,0c-5.1-5.1-13.3-5.1-18.4,0l-14.1,14.1c-5.1,5.1-5.1,13.3,0,18.4s13.3,5.1,18.4,0l13.4-13.4
		c0.8-0.8,2-0.8,2.8,0c0.8,0.8,0.8,2,0,2.8c0,0,0,0,0,0L32.7,1026.7z M59.6,999.8c-6.6,6.6-17.4,6.6-24,0c-0.8-0.8-0.8-2,0-2.8
		s2-0.8,2.8,0c0,0,0,0,0,0c5.1,5.1,13.3,5.1,18.4,0l14.1-14.1c5.1-5.1,5.1-13.3,0-18.4c-5.1-5.1-13.3-5.1-18.4,0l-13.4,13.4
		c-0.8,0.8-2,0.8-2.8,0c-0.8-0.8-0.8-2,0-2.8c0,0,0,0,0,0l13.4-13.4c6.6-6.6,17.4-6.6,24,0c6.6,6.6,6.6,17.4,0,24L59.6,999.8z"/>
</g>
</svg>
